<svg width="18" height="18" viewBox="0 0 18 18" fill="none" xmlns="http://www.w3.org/2000/svg">
<path d="M5.11157 2.83218C6.52527 1.4416 8.33902 0.698356 10.2542 0.894684L10.4553 0.919098C12.5326 1.21166 14.4167 2.70412 15.6575 4.47281L15.8958 4.83316C15.9722 4.95384 16.0455 5.07174 16.1116 5.17398C16.2531 5.39284 16.3866 5.57985 16.5383 5.73648L16.5686 5.75601C16.604 5.77825 16.6371 5.7959 16.6985 5.83121C16.7504 5.86106 16.8226 5.9043 16.8918 5.95718C16.9609 6.00997 17.0499 6.08992 17.1184 6.20425C17.2599 6.44103 17.1831 6.74795 16.9465 6.8898C16.7098 7.03154 16.403 6.9544 16.261 6.71793C16.2815 6.75204 16.2983 6.76277 16.2844 6.75211C16.2703 6.74131 16.2459 6.72511 16.1995 6.69839C16.1623 6.67707 16.0938 6.63875 16.0364 6.60269C16.0064 6.58387 15.9709 6.56049 15.9338 6.53238L15.8206 6.43277C15.5996 6.20475 15.424 5.95149 15.2717 5.71597C15.191 5.59111 15.1199 5.47743 15.051 5.36832L14.8391 5.04703C13.7303 3.4664 12.1342 2.23295 10.4827 1.9357L10.1516 1.88882C8.57769 1.72758 7.04661 2.33069 5.81274 3.54507L5.56958 3.79605C4.73394 4.70344 4.02961 5.78714 3.37231 6.92593L3.09302 7.41714C2.41955 8.61931 1.84805 9.84554 1.81177 11.2023C1.7596 13.1638 3.33472 14.7479 4.87915 15.4113L5.12231 15.5109C7.64516 16.5009 10.6308 16.2566 13.1497 15.2033L13.553 15.0285C14.4765 14.6099 15.2594 14.1048 15.678 13.1593L15.759 12.965C16.1171 12.0525 16.1945 11.0529 15.9758 10.0802L15.9241 9.87222C15.4985 8.29411 14.3674 7.03637 13.1741 5.94254L12.6614 5.48257L12.592 5.40933C12.4513 5.22417 12.4554 4.9593 12.6145 4.7775C12.7737 4.59584 13.0355 4.55704 13.2375 4.67203L13.3206 4.73062L13.842 5.19644C15.0759 6.32483 16.3884 7.75221 16.8899 9.61148L16.9514 9.86148C17.2135 11.0281 17.1211 12.2311 16.6897 13.3302L16.592 13.5636C16.0236 14.8478 14.959 15.4909 13.9583 15.9425L13.5354 16.1261C10.8325 17.2564 7.57074 17.5474 4.75513 16.4416L4.48462 16.3293C2.73607 15.5782 0.74528 13.7055 0.812744 11.175C0.856054 9.56008 1.53429 8.15288 2.21997 6.92886L2.50415 6.42886C3.17697 5.26271 3.92634 4.10514 4.83423 3.11929L5.11157 2.83218ZM7.15845 12.8439C7.2502 12.7658 7.38226 12.7658 7.47388 12.8371L7.51099 12.8722L7.64185 13.0177C8.3201 13.7349 9.30168 14.2444 10.2825 14.3673C11.3208 14.4974 12.3373 14.1946 13.0159 13.2697L13.05 13.2316C13.1362 13.1537 13.2681 13.1447 13.3655 13.216C13.4766 13.2976 13.5006 13.4533 13.4192 13.5646L13.2629 13.7628C12.46 14.7073 11.3252 15.0019 10.22 14.8634C9.122 14.7258 8.03442 14.1612 7.27759 13.3605L7.13013 13.1964L7.10181 13.1554C7.04548 13.0537 7.06673 12.9225 7.15845 12.8439ZM8.24731 4.69156C8.38539 4.69156 8.49731 4.80349 8.49731 4.94156C8.49732 6.1755 8.56624 7.37308 8.66626 8.58609L8.77466 9.80582V9.8566C8.76224 9.97213 8.67019 10.0667 8.55005 10.0783C8.43011 10.0894 8.32143 10.0143 8.28735 9.90347L8.27759 9.85367L8.16724 8.62711C8.06654 7.4059 7.99732 6.19337 7.99731 4.94156C7.99731 4.80365 8.10946 4.69182 8.24731 4.69156ZM11.0364 5.01773C11.1744 5.01784 11.2864 5.12973 11.2864 5.26773C11.2864 5.55414 11.2762 5.85003 11.2668 6.14371C11.2575 6.4391 11.2485 6.73476 11.2502 7.02652C11.2538 7.61145 11.3003 8.16883 11.4602 8.66714C11.5022 8.79852 11.4295 8.93945 11.2981 8.9816C11.1669 9.0234 11.026 8.95148 10.9836 8.82047C10.8007 8.25021 10.7539 7.63282 10.7502 7.02945C10.7484 6.72701 10.7575 6.42283 10.7668 6.12808C10.7763 5.83177 10.7864 5.54459 10.7864 5.26773C10.7864 5.1297 10.8984 5.0178 11.0364 5.01773Z" fill="white"/>
</svg>
