<svg width="34" height="34" viewBox="0 0 34 34" fill="none" xmlns="http://www.w3.org/2000/svg">
<path fill-rule="evenodd" clip-rule="evenodd" d="M19.5071 0.788612C15.5492 0.382997 11.8084 1.98353 8.9426 4.94584L8.66721 5.23685C6.85149 7.2084 5.35364 9.5238 4.00803 11.856L3.44065 12.856C2.06887 15.3046 0.710632 18.1193 0.62424 21.3501C0.488912 26.4117 4.47167 30.1566 7.96897 31.6587L8.51096 31.8814C14.1421 34.0931 20.6638 33.512 26.0696 31.2515L26.9172 30.8853C28.9187 29.982 31.047 28.6958 32.1838 26.1275L32.3791 25.6597C33.2419 23.4611 33.427 21.0556 32.9026 18.7222L32.7795 18.2232C31.7766 14.5039 29.1509 11.6502 26.6828 9.3931L25.6399 8.46146L25.5598 8.39799C25.1468 8.10399 24.5701 8.16482 24.2287 8.55424C23.8877 8.94363 23.9028 9.52328 24.2483 9.89408L24.3215 9.96537L24.8362 10.4195C27.4057 12.715 29.9369 15.3617 30.8489 18.7437L30.9514 19.1597C31.3889 21.1054 31.2332 23.104 30.5168 24.9292L30.3547 25.3179C29.5176 27.2091 27.9529 28.219 26.1057 29.0562L25.2981 29.4068C20.2598 31.5136 14.2893 32.0008 9.24338 30.0201L8.75803 29.8208C5.66898 28.4941 2.51947 25.3273 2.62424 21.4038C2.6968 18.6902 3.83872 16.238 5.18576 13.8335L5.74338 12.8511C7.05809 10.5733 8.46741 8.40726 10.1389 6.59232L10.3791 6.33744C12.8879 3.74279 16.0504 2.44434 19.3039 2.77787L19.635 2.81791C23.0548 3.30203 26.3865 5.82676 28.678 9.0933L28.8947 9.41263C29.0054 9.58142 29.1122 9.75182 29.2242 9.93043C29.324 10.0896 29.4279 10.2553 29.5422 10.4322C29.8468 10.9034 30.1987 11.4085 30.6408 11.8648L30.7541 11.9722C30.8684 12.0718 30.9823 12.149 31.0725 12.2056C31.1599 12.2605 31.26 12.317 31.3357 12.3598C31.3599 12.3734 31.3817 12.3857 31.3996 12.396C31.4861 12.4457 31.5336 12.4762 31.5627 12.4976C31.8614 12.9215 32.4407 13.0496 32.8928 12.7788C33.3368 12.5126 33.4997 11.9564 33.2844 11.4976L33.2365 11.4078L33.1272 11.2486C33.0129 11.1022 32.8871 10.9928 32.7834 10.9136C32.6446 10.8076 32.4996 10.7224 32.3957 10.6626C32.3636 10.6442 32.3354 10.6281 32.31 10.6136C32.238 10.5725 32.1886 10.5443 32.136 10.5113L32.0764 10.4732C31.7724 10.1595 31.5054 9.7848 31.2219 9.34623C31.1383 9.21684 31.0494 9.07542 30.9566 8.92786C30.8294 8.7255 30.6949 8.51159 30.5569 8.30131L30.3156 7.94486C27.8341 4.40733 24.0652 1.42244 19.9104 0.83744L19.5071 0.788612ZM15.4956 8.38291C15.2194 8.38291 14.9956 8.60677 14.9956 8.88291C14.9956 12.2215 15.2427 15.4202 15.5552 18.7071C15.5815 18.9818 15.8263 19.1834 16.1011 19.1573C16.3756 19.131 16.5772 18.887 16.5513 18.6124C16.2396 15.3347 15.9956 12.1734 15.9956 8.88291C15.9956 8.60677 15.7717 8.38291 15.4956 8.38291ZM21.073 9.03467C20.7969 9.03467 20.573 9.25853 20.573 9.53467C20.573 10.0593 20.5557 10.6017 20.5379 11.1613L20.5349 11.2554C20.5162 11.845 20.4971 12.4521 20.5008 13.0571C20.508 14.2643 20.6025 15.4983 20.9685 16.6392C21.0529 16.9021 21.3345 17.0478 21.5974 16.9634C21.8602 16.879 22.0047 16.5973 21.9207 16.3345C21.6007 15.3372 21.5078 14.2219 21.5008 13.0513C21.4972 12.4676 21.5152 11.8785 21.534 11.2876L21.5382 11.1554L21.5382 11.1552C21.5556 10.6111 21.573 10.0649 21.573 9.53467C21.573 9.25867 21.349 9.03489 21.073 9.03467ZM13.3164 24.689C13.4999 24.5319 13.7647 24.5307 13.9482 24.6733L14.0214 24.7436L14.2841 25.0356C15.6407 26.4701 17.6027 27.4899 19.5644 27.7358C21.6415 27.9962 23.6749 27.3891 25.0322 25.5386C25.1954 25.316 25.5087 25.268 25.7314 25.4311C25.9541 25.5945 26.0021 25.9077 25.8388 26.1304C24.2237 28.3324 21.7983 29.0235 19.4404 28.728C17.2441 28.4527 15.0694 27.3219 13.5556 25.7202L13.2617 25.394L13.2041 25.311C13.0912 25.1076 13.1328 24.8461 13.3164 24.689Z" fill="white"/>
</svg>
