<svg width="135" height="116" viewBox="0 0 135 116" fill="none" xmlns="http://www.w3.org/2000/svg">
    <path fill="#e0e0e0" fill-rule="evenodd" clip-rule="evenodd"
        d="M77.4987 0.714976C61.0121 -0.731222 45.3251 5.18911 33.4105 16.2592C24.9356 24.1333 18.1758 33.5598 12.1479 42.7668C6.63014 51.1946 0.880988 61.2747 0.51442 73.0049C0.219978 82.427 4.46728 90.4953 10.2761 96.6782C16.0667 102.842 23.6594 107.43 30.9048 110.092C54.161 118.64 81.4758 116.756 104.011 108.692C112.8 105.548 123.708 101.122 129.243 90.4217C133.879 81.4587 134.805 71.352 131.762 61.6959C126.954 46.4396 113.374 35.4372 102.497 27.2792C100.288 25.6224 97.1539 26.0701 95.4971 28.2792C93.8402 30.4884 94.2879 33.6224 96.4971 35.2792C107.617 43.6189 118.506 52.9008 122.224 64.7015C124.463 71.8036 123.799 79.1802 120.36 85.8275C116.818 92.6771 109.61 96.0681 100.642 99.277C79.7951 106.737 54.9452 108.274 34.3544 100.706C28.3482 98.4989 22.1403 94.7019 17.5642 89.8311C13.0063 84.9796 10.3206 79.3638 10.5095 73.3173C10.7826 64.5794 15.0919 56.5266 20.5143 48.2443C26.4284 39.2112 32.6549 30.6113 40.2171 23.5851C50.2124 14.2984 63.1573 9.49535 76.6249 10.6767C90.7408 11.915 104.502 20.715 113.802 32.0583C114.56 32.9833 115.201 33.8576 115.92 34.838L115.92 34.8382C116.325 35.3896 116.754 35.9747 117.242 36.6212C118.492 38.2763 119.974 40.1044 121.851 41.7618C122.549 42.3783 123.287 42.8045 123.783 43.0709C124.161 43.2745 124.601 43.4878 124.908 43.6366L124.911 43.6381C124.992 43.6776 125.064 43.7125 125.123 43.7414C125.33 43.8434 125.47 43.9158 125.564 43.9672C127.231 45.8062 130.045 46.1608 132.132 44.7002C134.394 43.1166 134.944 39.999 133.361 37.7367C132.65 36.7215 131.775 36.069 131.185 35.684C130.576 35.2858 129.954 34.9735 129.536 34.7677C129.369 34.686 129.232 34.6194 129.114 34.5618L129.114 34.5618C128.865 34.4412 128.698 34.3601 128.516 34.2621C128.453 34.2282 128.408 34.2027 128.38 34.1858C127.29 33.2078 126.308 32.0322 125.222 30.594C124.91 30.1814 124.566 29.7138 124.201 29.2166L124.201 29.2166C123.383 28.1027 122.455 26.8406 121.535 25.7183C111.009 12.8782 94.9644 2.24705 77.4987 0.714976ZM125.716 44.0556C125.737 44.0695 125.733 44.0686 125.71 44.0518L125.716 44.0556ZM63.8288 30.1422C63.8288 28.7615 62.7095 27.6422 61.3288 27.6422C59.9481 27.6422 58.8288 28.7615 58.8288 30.1422C58.8288 41.6951 59.8296 52.7523 61.0883 64.0804C61.2407 65.4526 62.4768 66.4415 63.849 66.289C65.2213 66.1365 66.2102 64.9005 66.0577 63.5282C64.8049 52.2533 63.8288 41.4145 63.8288 30.1422ZM86.2702 32.3864C86.2702 31.0057 85.1509 29.8864 83.7702 29.8864C82.3895 29.8864 81.2702 31.0057 81.2702 32.3864C81.2702 34.1686 81.2015 36.0139 81.1298 37.9413V37.9415V37.9417V37.9418L81.1174 38.2735C81.0421 40.3026 80.9681 42.4136 80.983 44.523C81.0127 48.7273 81.3928 53.1144 82.9255 57.2016C83.4103 58.4944 84.8513 59.1495 86.1441 58.6647C87.4369 58.1799 88.0919 56.7388 87.6071 55.446C86.379 52.171 86.011 48.4708 85.9829 44.4877C85.9688 42.5033 86.0384 40.4956 86.114 38.4589L86.1273 38.1011C86.1982 36.1983 86.2702 34.2654 86.2702 32.3864ZM52.1006 84.1055C53.0769 83.1292 54.6598 83.1292 55.6362 84.1055C60.9882 89.4576 69.3193 93.3774 77.7185 94.2782C86.0962 95.1767 94.1419 93.0515 99.4292 86.8829C100.328 85.8346 101.906 85.7132 102.954 86.6118C104.003 87.5103 104.124 89.0886 103.225 90.1369C96.5519 97.9228 86.654 100.265 77.1853 99.2497C67.7383 98.2365 58.3203 93.8607 52.1006 87.6411C51.1243 86.6648 51.1243 85.0818 52.1006 84.1055Z" />
</svg>